<svg xmlns="http://www.w3.org/2000/svg" xmlns:xlink="http://www.w3.org/1999/xlink" width="64" height="64"><defs><path id="a" d="M0 .04h3.96V4H0z"/><path id="c" d="M0 .794h3.96v3.96H0z"/></defs><g fill="none" fill-rule="evenodd"><path fill="#30ADAD" d="M57.57 12.6l.3.322c4.937 5.415 10.526 18.792-5.533 26.285-17.36 8.1-28.142 8.509-34.132 2.18C5.029 27.464 38.373-7.32 57.57 12.6z"/><path fill="#FFF" d="M42.999 35.515c.907-4.998-2.59-10.04-3.75-12.745-.727-1.695.121-3.555 2.182-4.152 1.448-.42 4.702.144 4.702 4.777 0 1.799-1.382 6.577-3.134 12.12m-16.573-10.41l6.111-.011 6.71 22.107c-.635 1.856-1.238 3.48-1.675 4.74l-2.739.72-8.407-27.556zm-12.808 0l6.11-.011 6.71 22.107c-.634 1.856-1.237 3.48-1.674 4.74l-3.226-.876-7.92-25.96z"/><path stroke="#0C3636" stroke-linecap="square" stroke-width="2" d="M51.226 32.781c0 11.192-9.073 20.264-20.265 20.264-11.191 0-20.264-9.072-20.264-20.264s9.073-20.264 20.264-20.264c11.192 0 20.265 9.072 20.265 20.264z"/><path stroke="#0C3636" stroke-width="2" d="M42.763 36.367c1.749-5.408-2.265-10.686-3.513-13.597-.727-1.695.12-3.555 2.18-4.153 1.45-.419 4.704.145 4.704 4.778 0 3.748-6.224 21.712-8.597 28.546m-12.36.333c.94-2.63 3.375-9.631 5.02-14.7m4.602 15.088l-8.52-27.936"/><path stroke="#0C3636" stroke-width="2" d="M23.275 25.094h9.228l6.745 22.118M13.412 24.726l7.995 26.214m-7.915-25.846h6.143l6.929 22.723"/><path fill="#0C3636" d="M52.772 53.045a1.98 1.98 0 11-3.959.001 1.98 1.98 0 013.959-.001"/><g transform="translate(9 51.025)"><mask id="b" fill="#fff"><use xlink:href="#a"/></mask><path fill="#0C3636" d="M3.96 2.02a1.98 1.98 0 11-3.959.001A1.98 1.98 0 013.96 2.02" mask="url(#b)"/></g><path fill="#0C3636" d="M52.772 12.799a1.98 1.98 0 11-3.96 0 1.98 1.98 0 013.96 0"/><g transform="translate(9 10.025)"><mask id="d" fill="#fff"><use xlink:href="#c"/></mask><path fill="#0C3636" d="M3.96 2.774a1.98 1.98 0 11-3.96 0 1.98 1.98 0 013.96 0" mask="url(#d)"/></g></g></svg>
