<svg xmlns="http://www.w3.org/2000/svg" width="64" height="64"><g fill="none" fill-rule="evenodd"><path fill="#44AEDE" d="M46.276 34.514l-.701.956c-10.94 14.774-19.96 20.075-28.095 17.498C-.793 47.18 11.506.591 37.953 8.708c6.889 2.113 18.948 11.175 8.323 25.806z"/><path fill="#FFF" d="M37 16v10h10"/><path stroke="#0C3636" stroke-width="2" d="M37 16v10h10"/><path stroke="#0C3636" stroke-width="2" d="M47 45.881V51H20V16h17l10 10v10.422"/><path stroke="#0C3636" stroke-width="2" d="M38.375 36.422h12.456v9.459h-7.855"/><path fill="#FFF" d="M38.375 36.23l-3.804 10.802-2.595-.913a5.728 5.728 0 013.804-10.804l2.595.915z"/><path stroke="#0C3636" stroke-linecap="round" stroke-width="2" d="M40.006 46.131l-4.557-1.63m6.33-4.014l-4.296-1.537"/><path stroke="#0C3636" stroke-width="2" d="M29.879 36.624l-.236-.083a2.533 2.533 0 00-1.681 4.777l.23.08"/><path stroke="#0C3636" stroke-width="2" d="M34.57 47.032l-2.594-.914a5.727 5.727 0 113.804-10.803l2.595.914"/><path stroke="#0C3636" stroke-linecap="round" stroke-width="2" d="M34.035 48.498l5.111-14.254"/><path stroke="#0C3636" stroke-width="2" d="M27.58 38.527c-3.556-1.253-7.597-4.167-7.58-10.94"/></g></svg>
