<svg xmlns="http://www.w3.org/2000/svg" width="64" height="64"><g fill="none" fill-rule="evenodd"><path fill="#E84E4E" d="M40.219 40.275c-16.752 9.29-27.48 10.451-33.897 4.555-14.115-12.969 16.721-49.995 37.26-31.462 5.35 4.828 12.45 18.137-3.363 26.907z"/><path fill="#FFF" d="M30.072 40.535l-3.805 10.803-2.594-.913a5.727 5.727 0 013.804-10.804l2.595.914zM44 34.696c.906-4.998-2.59-10.04-3.75-12.745-.728-1.695.12-3.555 2.181-4.152 1.448-.42 4.702.144 4.702 4.777 0 1.799-1.382 6.577-3.134 12.12"/><path stroke="#0C3636" stroke-width="2" d="M43.763 35.548c1.748-5.408-2.265-10.686-3.514-13.597-.726-1.695.12-3.555 2.182-4.153 1.449-.419 4.702.145 4.702 4.778 0 3.748-6.223 21.712-8.596 28.546m-7.936-16.313L27.28 23.908"/><path stroke="#0C3636" stroke-width="2" d="M11.786 30.052c.962-10.296 9.628-18.354 20.176-18.354 11.192 0 20.264 9.072 20.264 20.264 0 9.878-7.07 18.096-16.425 19.89"/><path stroke="#0C3636" stroke-width="2" d="M24.275 24.275h9.228l6.745 22.118M14.412 23.907l4.318 14.169m-4.238-13.801h6.143l3.682 12.085"/><path fill="#0C3636" d="M53.772 52.226a1.98 1.98 0 11-3.959.001 1.98 1.98 0 013.959-.001m-39.812 0a1.98 1.98 0 11-3.96 0 1.98 1.98 0 013.96 0M53.772 11.98a1.98 1.98 0 11-3.96 0 1.98 1.98 0 013.96 0m-39.812 0a1.98 1.98 0 11-3.961-.001 1.98 1.98 0 013.961.001"/><path stroke="#0C3636" stroke-linecap="round" stroke-width="2" d="M31.704 50.437l-4.557-1.63m6.329-4.014l-4.296-1.537"/><path stroke="#0C3636" stroke-width="2" d="M21.576 40.93l-.235-.083a2.533 2.533 0 00-1.682 4.777l.23.08"/><path stroke="#0C3636" stroke-width="2" d="M26.268 51.338l-2.595-.914a5.727 5.727 0 113.805-10.803l2.595.914"/><path stroke="#0C3636" stroke-linecap="round" stroke-sidth="2" d="M25.732 52.803l5.111-14.254"/><path stroke="#0C3636" stroke-width="2" d="M19.278 42.833c-3.864-1.361-8.3-4.683-7.482-12.78"/></g></svg>
