<svg xmlns="http://www.w3.org/2000/svg" width="230" height="200"><g fill="none" fill-rule="evenodd"><path fill="#0C3636" d="M95.5 135.507C75.89 124.185 69.171 99.11 80.493 79.5 91.815 59.89 116.89 53.171 136.5 64.493c19.61 11.322 26.329 36.397 15.007 56.007-11.322 19.61-36.397 26.329-56.007 15.007"/><path fill="#FFF" d="M117.637 110.01a5.117 5.117 0 011.081-7.166l9.466-6.952c2.281-1.675 5.495-1.183 7.18 1.099a5.116 5.116 0 01-1.082 7.165l-9.466 6.952c-2.281 1.675-5.495 1.183-7.18-1.099M104.637 93.01a5.117 5.117 0 011.081-7.166l9.466-6.952c2.281-1.675 5.495-1.183 7.18 1.099a5.116 5.116 0 01-1.082 7.165l-9.466 6.952a5.145 5.145 0 01-7.18-1.099"/><path fill="#2D97C8" d="M150.423 61.65l-5.91 4.415 10.057 13.868 5.91-4.415c2.384-1.781 2.92-5.154 1.195-7.533l-3.81-5.254c-1.725-2.379-5.057-2.863-7.442-1.081"/><path fill="#44AEDE" d="M119.014 71.385l8.328-6.152c8.13-6.004 19.55-4.287 25.51 3.838l1.246 1.698c5.96 8.124 4.201 19.577-3.928 25.582l-8.328 6.152-22.828-31.118z"/><path fill="#2D97C8" d="M112.409 70.141a5.151 5.151 0 017.212 1.09l23.074 31.404a5.174 5.174 0 01-1.104 7.224 5.151 5.151 0 01-7.212-1.09l-23.074-31.404a5.174 5.174 0 011.104-7.224m40.902-6.744c11.138-8.173 28.845-14.201 49.95 3.483l-6.568 7.815c-13.026-10.914-25.226-11.915-37.296-3.058l-6.086-8.24zm-9.477 6.46c1.37-1.04 3.267-.78 4.24.582l3.815 5.354c.97 1.363.647 3.31-.723 4.35-1.37 1.042-3.268.78-4.238-.582l-3.817-5.354c-.97-1.362-.647-3.31.723-4.35m-11.159 2.597a2.967 2.967 0 014.133.638l9.133 12.34c.97 1.312.695 3.154-.616 4.114s-3.162.675-4.133-.638l-9.132-12.339a2.931 2.931 0 01.615-4.115"/><path fill="#E08103" d="M34.307 121.305c13.026 10.915 25.225 11.915 37.296 3.058l6.086 8.24c-11.138 8.172-28.845 14.201-49.95-3.483l6.568-7.815zm46.27 14.045l5.91-4.414-10.057-13.869-5.91 4.415c-2.384 1.782-2.92 5.154-1.195 7.533l3.81 5.254c1.725 2.379 5.057 2.863 7.442 1.081"/><path fill="#F99922" d="M110.986 125.615l-8.328 6.152c-8.13 6.004-19.55 4.287-25.51-3.837l-1.246-1.699c-5.96-8.124-4.201-19.577 3.928-25.582l8.328-6.152 22.828 31.118z"/><path fill="#E08103" d="M117.591 127.859a5.151 5.151 0 01-7.212-1.09L87.305 95.365a5.174 5.174 0 011.104-7.224 5.153 5.153 0 017.213 1.09l23.073 31.404a5.174 5.174 0 01-1.104 7.224m-30.425-.715c-1.37 1.04-3.267.779-4.24-.583l-3.815-5.354c-.97-1.363-.647-3.31.723-4.35 1.37-1.042 3.267-.78 4.239.582l3.815 5.354c.972 1.362.648 3.31-.722 4.35m10.159-2.597a2.968 2.968 0 01-4.133-.638l-9.133-12.34c-.971-1.312-.695-3.154.616-4.114s3.162-.675 4.133.638l9.133 12.34a2.931 2.931 0 01-.616 4.114"/></g></svg>
