
<svg id="svg" version="1.1" xmlns="http://www.w3.org/2000/svg" xmlns:xlink="http://www.w3.org/1999/xlink" width="156" height="59" viewBox="0, 0, 400,152.52062328139323"><g id="svgg"><path id="path0" d="M382.451 49.589 C 381.460 49.952,380.863 50.459,380.330 51.390 L 379.836 52.250 379.835 74.380 C 379.833 98.547,379.770 97.014,380.811 98.199 C 382.700 100.351,386.664 99.557,387.471 96.866 C 387.747 95.943,387.753 52.910,387.476 51.987 C 386.883 50.005,384.463 48.850,382.451 49.589 M185.301 52.038 C 183.794 52.751,183.622 53.066,179.943 61.917 C 178.800 64.667,177.097 68.754,176.158 71.000 C 175.219 73.246,174.245 75.610,173.994 76.254 C 173.743 76.897,173.385 77.760,173.199 78.170 C 173.013 78.581,172.320 80.229,171.659 81.833 C 170.341 85.031,169.407 87.262,168.833 88.583 C 166.388 94.206,166.089 95.060,166.086 96.429 C 166.082 98.692,167.120 99.754,169.333 99.747 C 171.551 99.740,172.173 99.039,174.214 94.250 C 174.995 92.417,175.841 90.448,176.094 89.875 L 176.555 88.833 186.674 88.833 C 194.571 88.833,196.828 88.879,196.954 89.042 C 197.043 89.156,197.356 89.834,197.649 90.549 C 198.409 92.400,200.111 96.260,200.625 97.299 C 201.895 99.865,204.581 100.561,206.544 98.833 C 208.086 97.476,208.212 95.804,206.981 93.042 C 206.808 92.653,206.400 91.678,206.075 90.876 C 205.749 90.073,205.416 89.267,205.334 89.083 C 204.854 88.012,204.435 87.024,203.940 85.799 C 203.192 83.951,198.222 72.116,197.794 71.167 C 197.608 70.754,197.138 69.629,196.749 68.667 C 196.360 67.704,195.739 66.204,195.368 65.333 C 194.997 64.462,193.780 61.575,192.662 58.917 C 190.311 53.327,190.094 52.954,188.766 52.229 C 188.125 51.879,185.897 51.756,185.301 52.038 M253.833 52.155 C 250.350 52.854,249.458 57.354,252.455 59.116 L 253.250 59.583 259.000 59.626 C 262.162 59.649,264.919 59.707,265.125 59.754 L 265.500 59.840 265.500 78.092 C 265.500 98.232,265.434 96.975,266.550 98.140 C 268.669 100.351,272.633 99.662,273.882 96.866 C 274.034 96.526,274.095 91.963,274.129 78.174 C 274.165 64.007,274.221 59.902,274.379 59.801 C 274.492 59.730,277.133 59.667,280.250 59.662 C 287.114 59.650,287.592 59.535,288.524 57.674 C 289.708 55.311,288.348 52.672,285.686 52.169 C 284.665 51.977,254.789 51.964,253.833 52.155 M308.083 62.997 C 299.203 64.975,293.622 72.084,293.622 81.417 C 293.622 94.636,305.529 103.235,318.167 99.142 C 333.376 94.216,334.643 71.272,320.083 64.429 C 316.642 62.811,311.612 62.211,308.083 62.997 M350.972 62.751 C 350.925 62.797,350.444 62.913,349.902 63.009 C 333.237 65.960,329.867 90.258,345.036 98.093 C 349.321 100.306,355.233 100.730,359.879 99.157 C 376.220 93.624,376.130 68.948,359.750 63.612 C 357.285 62.810,351.482 62.240,350.972 62.751 M215.604 63.578 C 214.785 63.870,213.882 64.724,213.483 65.583 C 213.044 66.531,213.001 85.797,213.433 88.346 C 214.776 96.267,220.835 100.632,229.748 100.099 C 236.679 99.684,241.076 96.624,243.057 90.833 C 243.965 88.180,244.017 87.340,243.965 76.237 L 243.917 66.057 243.411 65.240 C 241.553 62.235,236.810 62.968,236.154 66.361 C 236.077 66.758,236.011 71.373,236.007 76.617 C 235.999 87.275,235.914 88.194,234.777 89.917 C 232.029 94.081,224.359 93.825,222.112 89.494 C 221.301 87.930,221.282 87.677,221.180 76.750 C 221.085 66.571,221.078 66.405,220.718 65.626 C 219.833 63.710,217.667 62.843,215.604 63.578 M187.616 67.172 C 188.030 68.131,188.575 69.404,188.828 70.000 C 189.852 72.418,192.403 78.332,192.943 79.542 C 193.260 80.253,193.473 80.909,193.416 81.000 C 193.234 81.296,180.000 81.221,180.000 80.924 C 180.000 80.791,181.342 77.510,182.982 73.633 C 184.622 69.756,186.083 66.295,186.229 65.944 C 186.601 65.048,186.761 65.189,187.616 67.172 M314.575 70.255 C 319.226 71.466,322.333 75.937,322.333 81.417 C 322.333 95.431,303.833 97.082,301.699 83.258 C 300.436 75.082,307.135 68.317,314.575 70.255 M357.250 70.537 C 368.156 74.965,365.349 92.833,353.747 92.833 C 342.546 92.833,339.185 76.059,349.353 70.907 C 351.398 69.870,355.173 69.693,357.250 70.537 " stroke="none" fill="#363636" fill-rule="evenodd"></path><path id="path1" d="M73.500 9.843 C 34.122 13.287,6.817 49.009,13.923 87.787 C 17.694 108.368,31.648 126.330,50.784 135.237 C 53.973 136.721,53.927 136.716,54.833 135.722 C 55.238 135.279,56.936 133.492,58.608 131.750 C 61.163 129.089,64.743 124.932,65.995 123.173 L 66.316 122.722 65.367 122.428 C 52.745 118.516,46.382 109.448,48.325 98.142 C 49.141 93.391,51.662 88.457,55.141 84.801 L 56.543 83.328 55.058 81.789 C 45.723 72.116,38.735 51.577,41.329 41.435 C 42.789 35.727,47.986 32.903,52.980 35.106 C 61.086 38.680,68.436 56.498,68.559 72.875 C 68.572 74.685,68.601 76.167,68.623 76.167 C 68.645 76.167,69.357 75.987,70.206 75.767 C 76.201 74.217,81.483 74.361,88.083 76.255 C 88.410 76.349,88.417 76.269,88.424 72.300 C 88.444 61.980,91.955 49.277,96.693 42.380 C 100.380 37.012,112.481 42.402,116.582 51.239 C 120.806 60.340,120.904 69.837,116.794 71.934 C 108.691 76.068,96.694 65.413,95.007 52.583 L 94.876 51.583 94.854 52.702 C 94.726 59.480,100.535 69.220,106.642 72.468 C 107.385 72.863,108.035 73.255,108.087 73.340 C 108.398 73.843,103.909 79.922,101.614 82.106 L 100.121 83.527 101.036 84.472 C 104.578 88.129,107.262 93.208,108.097 97.833 C 110.117 109.025,104.100 118.082,91.945 122.145 C 90.861 122.507,89.936 122.841,89.890 122.887 C 89.844 122.933,90.324 123.489,90.956 124.122 C 91.588 124.756,92.538 125.817,93.068 126.480 C 94.278 127.997,95.452 129.283,98.411 132.333 C 99.700 133.662,101.196 135.225,101.735 135.805 L 102.716 136.860 103.483 136.575 C 123.475 129.152,139.866 108.829,143.566 86.876 C 150.725 44.400,115.919 6.134,73.500 9.843 " stroke="none" fill="#ec4c4c" fill-rule="evenodd"></path><path id="path2" d="M0.000 76.250 L 0.000 152.500 200.000 152.500 L 400.000 152.500 400.000 76.250 L 400.000 0.000 200.000 0.000 L 0.000 0.000 0.000 76.250 M83.949 9.675 C 115.864 12.284,141.369 37.408,144.413 69.235 C 147.127 97.611,131.179 124.739,105.119 136.073 C 102.590 137.174,102.678 137.165,101.991 136.375 C 101.692 136.031,99.803 134.032,97.794 131.931 C 95.784 129.831,93.532 127.338,92.790 126.391 C 92.047 125.445,91.308 124.628,91.146 124.577 C 90.905 124.500,89.667 122.987,89.667 122.769 C 89.667 122.734,90.623 122.391,91.792 122.005 C 109.429 116.192,113.771 98.847,101.111 84.775 L 99.934 83.466 101.027 82.489 C 102.860 80.851,105.073 78.094,106.897 75.174 L 107.986 73.431 107.013 72.911 C 99.086 68.676,93.592 57.819,94.722 48.625 C 94.942 46.833,95.083 47.310,95.091 49.875 C 95.136 63.247,107.956 76.326,116.630 71.848 C 122.599 68.767,119.300 51.453,111.500 44.924 C 105.071 39.543,98.979 38.866,96.350 43.240 C 91.455 51.385,88.222 64.010,88.547 73.708 C 88.654 76.878,88.770 76.676,87.129 76.169 C 81.899 74.553,74.094 74.521,69.628 76.097 C 68.295 76.567,68.282 76.552,68.410 74.708 C 68.788 69.274,67.282 59.810,64.943 52.917 C 59.713 37.506,51.437 30.879,44.398 36.464 C 39.391 40.436,39.923 52.906,45.675 66.439 C 48.270 72.542,53.017 79.975,55.818 82.321 C 56.854 83.188,56.857 83.246,55.903 84.174 C 48.821 91.067,46.242 101.784,49.729 109.831 C 52.038 115.159,57.694 119.810,64.452 121.938 C 65.486 122.264,66.368 122.587,66.411 122.657 C 66.604 122.969,62.408 128.048,59.202 131.383 C 57.774 132.868,56.014 134.698,55.291 135.449 C 54.347 136.428,53.897 136.785,53.696 136.712 C 52.643 136.328,48.849 134.523,47.191 133.617 C 15.737 116.418,3.652 77.827,19.689 45.791 C 30.006 25.182,50.759 11.359,74.000 9.615 C 75.819 9.478,82.003 9.515,83.949 9.675 M385.948 49.760 C 386.750 50.230,387.440 51.194,387.779 52.318 C 388.131 53.488,388.102 95.428,387.748 96.620 C 386.550 100.655,380.948 100.647,379.748 96.609 C 379.377 95.360,379.374 53.485,379.745 52.236 C 380.530 49.593,383.583 48.374,385.948 49.760 M188.717 51.987 C 190.053 52.600,190.703 53.567,192.082 56.994 C 192.470 57.960,193.126 59.538,193.539 60.500 C 193.952 61.462,195.544 65.250,197.077 68.917 C 200.275 76.569,200.015 75.953,200.594 77.250 C 200.839 77.800,201.213 78.700,201.424 79.250 C 201.636 79.800,203.095 83.287,204.667 87.000 C 208.127 95.171,208.052 94.959,207.969 96.264 C 207.751 99.685,203.604 101.218,201.315 98.724 C 200.657 98.006,200.406 97.487,197.996 91.874 L 196.761 88.997 186.698 89.040 L 176.634 89.083 174.853 93.279 C 172.447 98.947,171.907 99.675,169.927 99.923 C 166.404 100.363,164.851 97.701,166.421 93.917 C 166.726 93.183,167.799 90.596,168.806 88.167 C 169.813 85.737,171.517 81.650,172.593 79.083 C 173.668 76.517,174.754 73.890,175.005 73.246 C 175.257 72.603,175.613 71.740,175.797 71.330 C 175.981 70.919,176.705 69.196,177.408 67.500 C 178.110 65.804,178.939 63.817,179.250 63.083 C 179.562 62.350,180.466 60.175,181.259 58.250 C 183.273 53.366,183.713 52.638,185.083 51.928 C 185.817 51.548,187.830 51.581,188.717 51.987 M286.572 52.177 C 289.741 53.362,290.071 57.796,287.109 59.380 C 286.440 59.738,286.215 59.753,280.417 59.833 L 274.417 59.917 274.333 78.250 L 274.250 96.583 273.881 97.274 C 272.176 100.461,267.241 100.424,265.645 97.213 L 265.250 96.417 265.167 78.167 L 265.083 59.917 259.083 59.833 C 253.916 59.762,253.013 59.712,252.580 59.474 C 249.553 57.814,249.851 53.415,253.074 52.175 C 254.430 51.653,285.176 51.654,286.572 52.177 M315.417 62.753 C 333.910 65.662,336.056 93.333,318.250 99.298 C 308.910 102.427,298.906 98.296,295.128 89.750 C 289.887 77.897,296.837 64.252,308.917 62.676 C 309.650 62.580,310.475 62.471,310.750 62.434 C 311.489 62.333,313.710 62.485,315.417 62.753 M356.026 62.592 C 368.901 64.213,376.055 77.807,370.450 90.000 C 368.549 94.136,363.690 98.494,360.131 99.255 C 359.830 99.319,359.508 99.430,359.417 99.501 C 358.096 100.521,351.205 100.499,347.833 99.464 C 329.403 93.808,331.762 64.910,350.836 62.676 C 351.797 62.564,352.696 62.449,352.833 62.422 C 353.395 62.310,354.068 62.346,356.026 62.592 M218.797 63.425 C 219.716 63.808,220.624 64.782,221.001 65.791 C 221.319 66.641,221.333 67.098,221.333 76.432 C 221.333 88.275,221.431 88.968,223.374 90.854 C 225.860 93.266,231.275 93.250,233.780 90.823 C 235.683 88.978,235.829 87.919,235.842 75.917 C 235.853 65.339,235.823 65.640,237.001 64.391 C 238.845 62.436,242.269 62.830,243.636 65.155 L 244.083 65.917 244.135 75.667 C 244.212 90.350,243.728 92.712,239.902 96.298 C 237.698 98.364,236.103 99.186,232.667 100.026 C 231.228 100.377,225.753 100.326,224.167 99.947 C 217.955 98.460,214.447 94.786,213.221 88.484 C 212.946 87.069,212.917 85.911,212.917 76.583 L 212.917 66.250 213.368 65.395 C 214.388 63.461,216.790 62.589,218.797 63.425 M186.405 66.042 C 186.341 66.248,186.083 66.867,185.832 67.417 C 185.582 67.967,185.147 68.991,184.866 69.692 C 184.415 70.821,183.974 71.860,183.498 72.917 C 183.416 73.100,183.150 73.737,182.907 74.333 C 182.664 74.929,182.318 75.754,182.137 76.167 C 181.610 77.372,181.410 77.847,180.911 79.083 C 180.652 79.725,180.379 80.321,180.303 80.408 C 179.811 80.978,180.045 81.000,186.667 81.000 C 192.024 81.000,193.167 80.960,193.167 80.774 C 193.167 80.595,192.186 78.214,191.166 75.917 C 190.784 75.057,190.254 73.830,189.002 70.911 C 188.257 69.173,187.549 67.525,187.429 67.250 C 187.309 66.975,187.108 66.506,186.982 66.208 C 186.711 65.571,186.566 65.529,186.405 66.042 M310.500 70.255 C 305.118 71.181,301.833 75.437,301.833 81.482 C 301.833 94.683,319.229 96.892,321.912 84.031 C 323.236 77.684,319.521 71.280,313.972 70.344 C 312.256 70.054,311.739 70.041,310.500 70.255 M352.244 70.243 C 344.859 71.381,341.104 80.479,345.084 87.595 C 348.961 94.528,359.113 94.184,362.630 87.000 C 366.116 79.880,362.125 71.055,355.055 70.250 C 354.521 70.189,353.971 70.116,353.833 70.088 C 353.696 70.060,352.981 70.129,352.244 70.243 " stroke="none" fill="#fbfbfb" fill-rule="evenodd"></path><path id="path3" d="M383.458 49.284 C 383.665 49.324,384.002 49.324,384.208 49.284 C 384.415 49.245,384.246 49.212,383.833 49.212 C 383.421 49.212,383.252 49.245,383.458 49.284 M381.859 49.615 C 381.076 50.002,380.339 50.785,379.931 51.665 C 379.465 52.672,379.288 95.018,379.743 96.585 C 380.385 98.791,383.302 100.472,384.822 99.510 C 384.972 99.416,384.691 99.393,384.066 99.450 C 382.364 99.604,380.714 98.619,380.062 97.059 C 379.872 96.603,379.834 92.782,379.835 74.380 L 379.836 52.250 380.330 51.390 C 380.863 50.459,381.460 49.952,382.451 49.589 C 382.835 49.448,382.952 49.354,382.750 49.349 C 382.567 49.345,382.166 49.464,381.859 49.615 M385.428 49.730 C 386.397 50.181,387.201 51.067,387.476 51.987 C 387.752 52.908,387.747 96.049,387.471 96.850 C 387.187 97.675,386.688 98.288,385.849 98.843 C 385.359 99.168,385.214 99.333,385.420 99.333 C 385.591 99.333,386.125 98.926,386.607 98.429 C 388.116 96.871,388.011 98.756,387.961 74.063 L 387.917 52.396 387.404 51.406 C 386.860 50.357,385.640 49.332,384.939 49.335 C 384.712 49.336,384.888 49.479,385.428 49.730 M185.083 51.928 C 183.713 52.638,183.273 53.366,181.259 58.250 C 180.466 60.175,179.562 62.350,179.250 63.083 C 178.939 63.817,178.110 65.804,177.408 67.500 C 176.705 69.196,175.981 70.919,175.797 71.330 C 175.613 71.740,175.257 72.603,175.005 73.246 C 174.754 73.890,173.668 76.517,172.593 79.083 C 171.517 81.650,169.813 85.737,168.806 88.167 C 167.799 90.596,166.726 93.183,166.421 93.917 C 164.851 97.701,166.404 100.363,169.927 99.923 C 171.907 99.675,172.447 98.947,174.853 93.279 L 176.634 89.083 186.698 89.040 L 196.761 88.997 197.996 91.874 C 200.406 97.487,200.657 98.006,201.315 98.724 C 203.604 101.218,207.751 99.685,207.969 96.264 C 208.052 94.959,208.127 95.171,204.667 87.000 C 203.095 83.287,201.636 79.800,201.424 79.250 C 201.213 78.700,200.839 77.800,200.594 77.250 C 200.015 75.953,200.275 76.569,197.077 68.917 C 195.544 65.250,193.952 61.462,193.539 60.500 C 193.126 59.538,192.470 57.960,192.082 56.994 C 190.703 53.567,190.053 52.600,188.717 51.987 C 187.830 51.581,185.817 51.548,185.083 51.928 M188.766 52.229 C 190.094 52.954,190.311 53.327,192.662 58.917 C 193.780 61.575,194.997 64.462,195.368 65.333 C 195.739 66.204,196.360 67.704,196.749 68.667 C 197.138 69.629,197.608 70.754,197.794 71.167 C 198.222 72.116,203.192 83.951,203.940 85.799 C 204.435 87.024,204.854 88.012,205.334 89.083 C 205.416 89.267,205.749 90.073,206.075 90.876 C 206.400 91.678,206.808 92.653,206.981 93.042 C 208.212 95.804,208.086 97.476,206.544 98.833 C 204.581 100.561,201.895 99.865,200.625 97.299 C 200.111 96.260,198.409 92.400,197.649 90.549 C 197.356 89.834,197.043 89.156,196.954 89.042 C 196.828 88.879,194.571 88.833,186.674 88.833 L 176.555 88.833 176.094 89.875 C 175.841 90.448,174.995 92.417,174.214 94.250 C 172.173 99.039,171.551 99.740,169.333 99.747 C 167.120 99.754,166.082 98.692,166.086 96.429 C 166.089 95.060,166.388 94.206,168.833 88.583 C 169.407 87.262,170.341 85.031,171.659 81.833 C 172.320 80.229,173.013 78.581,173.199 78.170 C 173.385 77.760,173.743 76.897,173.994 76.254 C 174.245 75.610,175.219 73.246,176.158 71.000 C 177.097 68.754,178.800 64.667,179.943 61.917 C 183.622 53.066,183.794 52.751,185.301 52.038 C 185.897 51.756,188.125 51.879,188.766 52.229 M253.074 52.175 C 249.851 53.415,249.553 57.814,252.580 59.474 C 253.013 59.712,253.916 59.762,259.083 59.833 L 265.083 59.917 265.167 78.167 C 265.256 97.687,265.209 96.645,266.055 97.890 C 266.446 98.464,267.616 99.336,267.983 99.327 C 268.136 99.323,268.036 99.208,267.750 99.057 C 266.973 98.649,266.156 97.815,265.817 97.083 C 265.521 96.447,265.507 95.589,265.504 78.128 L 265.500 59.840 265.125 59.754 C 264.919 59.707,262.162 59.649,259.000 59.626 L 253.250 59.583 252.455 59.116 C 249.914 57.623,250.105 53.811,252.787 52.479 L 253.583 52.083 269.144 52.037 C 285.710 51.987,286.039 52.001,287.324 52.795 C 289.284 54.006,289.464 57.383,287.645 58.816 C 286.636 59.611,286.283 59.651,280.250 59.662 C 277.133 59.667,274.492 59.730,274.379 59.801 C 274.221 59.902,274.165 64.007,274.129 78.174 C 274.095 91.963,274.034 96.526,273.882 96.866 C 273.585 97.532,272.525 98.645,271.846 99.004 C 271.518 99.177,271.365 99.322,271.505 99.326 C 272.069 99.342,273.374 98.206,273.890 97.250 L 274.250 96.583 274.333 78.250 L 274.417 59.917 280.417 59.833 C 286.215 59.753,286.440 59.738,287.109 59.380 C 290.071 57.796,289.741 53.362,286.572 52.177 C 285.176 51.654,254.430 51.653,253.074 52.175 M310.333 62.500 C 309.722 62.575,310.249 62.613,311.917 62.615 C 313.785 62.617,314.164 62.586,313.417 62.494 C 312.234 62.347,311.572 62.348,310.333 62.500 M352.167 62.500 C 351.543 62.576,352.023 62.614,353.667 62.616 C 355.450 62.619,355.843 62.587,355.167 62.493 C 354.093 62.345,353.422 62.346,352.167 62.500 M308.000 62.782 C 301.144 63.934,294.305 71.053,293.759 77.607 L 293.678 78.583 293.923 77.417 C 295.502 69.902,301.130 64.220,308.208 62.994 C 308.827 62.887,309.333 62.769,309.333 62.733 C 309.333 62.655,308.594 62.682,308.000 62.782 M314.677 62.728 C 314.729 62.783,315.329 62.936,316.011 63.069 C 322.937 64.423,328.961 70.562,329.926 77.250 C 330.102 78.472,330.356 78.950,330.236 77.833 C 329.555 71.502,324.254 65.326,317.750 63.289 C 316.464 62.886,314.484 62.524,314.677 62.728 M349.500 62.841 C 344.394 63.758,339.263 67.881,336.903 72.964 C 336.308 74.245,335.748 75.970,335.882 76.105 C 335.926 76.148,336.124 75.650,336.323 74.997 C 338.134 69.033,343.717 64.105,349.902 63.009 C 350.444 62.913,350.925 62.797,350.972 62.751 C 351.086 62.636,350.407 62.678,349.500 62.841 M357.000 62.855 C 361.185 63.801,364.190 65.362,366.747 67.919 C 374.883 76.055,373.512 91.059,364.083 97.077 C 362.929 97.814,362.234 98.167,360.000 99.151 C 359.613 99.321,359.622 99.327,360.131 99.236 C 364.403 98.469,369.586 93.101,371.382 87.583 C 374.971 76.555,367.631 63.743,357.167 62.771 L 356.250 62.685 357.000 62.855 M215.521 63.346 C 214.756 63.652,213.814 64.548,213.368 65.395 L 212.917 66.250 212.917 76.583 C 212.917 85.911,212.946 87.069,213.221 88.484 C 214.447 94.786,217.955 98.460,224.167 99.947 C 226.743 100.563,233.248 100.271,234.489 99.483 C 234.703 99.347,234.690 99.332,234.417 99.400 C 223.460 102.110,215.012 97.659,213.433 88.346 C 213.005 85.823,213.043 66.537,213.478 65.583 C 214.857 62.555,219.312 62.581,220.718 65.626 C 221.078 66.405,221.085 66.571,221.180 76.750 C 221.282 87.677,221.301 87.930,222.112 89.494 C 224.359 93.825,232.029 94.081,234.777 89.917 C 235.914 88.194,235.999 87.275,236.007 76.617 C 236.015 66.372,236.040 65.997,236.786 64.945 C 238.583 62.409,242.469 62.922,243.747 65.864 C 243.907 66.232,243.989 66.310,243.993 66.098 C 244.034 64.101,240.461 62.473,238.245 63.479 C 235.880 64.553,235.854 64.689,235.842 75.917 C 235.829 87.919,235.683 88.978,233.780 90.823 C 231.275 93.250,225.860 93.266,223.374 90.854 C 221.431 88.968,221.333 88.275,221.333 76.432 C 221.333 65.426,221.348 65.565,220.043 64.293 C 218.982 63.259,216.853 62.813,215.521 63.346 M186.229 65.944 C 186.083 66.295,184.622 69.756,182.982 73.633 C 181.342 77.510,180.000 80.791,180.000 80.924 C 180.000 81.221,193.234 81.296,193.416 81.000 C 193.473 80.909,193.260 80.253,192.943 79.542 C 192.403 78.332,189.852 72.418,188.828 70.000 C 186.674 64.918,186.663 64.901,186.229 65.944 M186.982 66.208 C 187.108 66.506,187.309 66.975,187.429 67.250 C 187.549 67.525,188.257 69.173,189.002 70.911 C 190.254 73.830,190.784 75.057,191.166 75.917 C 192.186 78.214,193.167 80.595,193.167 80.774 C 193.167 80.960,192.024 81.000,186.667 81.000 C 180.045 81.000,179.811 80.978,180.303 80.408 C 180.379 80.321,180.652 79.725,180.911 79.083 C 181.410 77.847,181.610 77.372,182.137 76.167 C 182.318 75.754,182.664 74.929,182.907 74.333 C 183.150 73.737,183.416 73.100,183.498 72.917 C 183.974 71.860,184.415 70.821,184.866 69.692 C 185.147 68.991,185.582 67.967,185.832 67.417 C 186.083 66.867,186.341 66.248,186.405 66.042 C 186.566 65.529,186.711 65.571,186.982 66.208 M244.078 76.500 C 244.078 82.046,244.099 84.315,244.125 81.542 C 244.151 78.769,244.151 74.231,244.125 71.458 C 244.099 68.685,244.078 70.954,244.078 76.500 M309.333 70.263 C 301.628 72.291,298.931 83.216,304.555 89.620 C 307.685 93.185,313.727 93.859,317.713 91.088 C 318.942 90.234,321.414 87.192,321.119 86.897 C 321.073 86.851,320.788 87.247,320.485 87.776 C 318.465 91.306,314.016 93.283,310.000 92.435 C 298.751 90.060,299.153 72.229,310.500 70.252 C 311.579 70.064,311.647 70.033,311.000 70.028 C 310.587 70.025,309.837 70.130,309.333 70.263 M313.423 70.241 C 320.086 71.277,324.080 79.107,321.407 85.896 C 321.267 86.251,321.191 86.580,321.238 86.627 C 321.596 86.985,322.333 83.475,322.333 81.417 C 322.333 75.240,317.892 69.906,312.840 70.016 C 312.209 70.030,312.306 70.068,313.423 70.241 M351.044 70.257 C 340.584 73.074,340.845 90.126,351.385 92.570 C 358.971 94.329,365.346 87.501,363.906 79.159 C 363.039 74.133,359.321 70.344,355.000 70.081 L 353.750 70.005 355.083 70.235 C 366.494 72.206,366.972 90.139,355.676 92.425 C 349.053 93.766,343.615 88.808,343.602 81.417 C 343.591 75.408,346.951 71.064,352.244 70.241 C 353.438 70.056,353.493 70.032,352.750 70.027 C 352.292 70.024,351.524 70.128,351.044 70.257 M335.623 76.674 C 335.561 76.907,335.474 77.544,335.428 78.090 L 335.344 79.083 335.591 77.917 C 335.830 76.791,335.855 75.794,335.623 76.674 M293.410 80.101 C 293.345 80.890,293.358 82.146,293.440 82.893 C 293.577 84.144,293.590 84.033,293.600 81.458 C 293.613 78.294,293.580 78.062,293.410 80.101 M330.380 81.417 C 330.380 83.342,330.402 83.546,330.501 82.583 C 330.567 81.942,330.566 80.892,330.500 80.250 C 330.400 79.287,330.379 79.490,330.380 81.417 M335.142 80.292 C 335.108 80.910,335.125 81.942,335.180 82.583 C 335.261 83.517,335.286 83.291,335.307 81.458 C 335.335 79.033,335.246 78.407,335.142 80.292 M335.433 84.803 C 335.520 85.871,335.809 86.965,335.815 86.250 C 335.817 86.067,335.712 85.429,335.582 84.833 L 335.347 83.750 335.433 84.803 M330.102 84.625 C 330.052 84.877,329.963 85.383,329.903 85.750 C 328.958 91.590,323.992 97.255,318.167 99.142 C 307.147 102.711,296.262 96.548,293.923 85.417 L 293.678 84.250 293.759 85.226 C 294.098 89.294,297.449 94.587,301.321 97.169 C 312.604 104.695,328.607 97.987,330.253 85.042 C 330.369 84.129,330.260 83.828,330.102 84.625 M335.833 86.812 C 335.833 87.632,337.118 90.522,338.276 92.306 C 340.843 96.261,344.956 98.969,350.000 100.023 C 352.372 100.520,358.719 100.147,359.417 99.471 C 359.584 99.309,359.264 99.357,358.000 99.683 C 348.970 102.010,338.762 96.350,336.252 87.625 C 336.002 86.757,335.833 86.429,335.833 86.812 M243.691 88.305 C 242.950 93.146,239.962 97.124,235.777 98.841 C 235.242 99.061,234.893 99.270,235.001 99.306 C 235.216 99.378,237.667 98.206,238.322 97.718 C 241.297 95.502,243.575 91.598,243.933 88.101 C 244.088 86.586,243.935 86.716,243.691 88.305 M268.558 99.539 C 268.663 99.606,269.200 99.662,269.750 99.662 C 270.300 99.662,270.837 99.606,270.942 99.539 C 271.048 99.472,270.512 99.417,269.750 99.417 C 268.988 99.417,268.452 99.472,268.558 99.539 " stroke="none" fill="#aaaaaa" fill-rule="evenodd"></path><path id="path4" d="M74.000 9.615 C 48.375 11.537,24.783 29.144,16.820 52.289 C 16.304 53.790,16.569 53.477,17.167 51.879 C 29.426 19.157,66.467 1.841,99.917 13.194 C 116.423 18.797,129.726 30.465,137.697 46.333 C 138.595 48.121,139.329 49.508,139.329 49.417 C 139.327 49.024,136.709 43.917,135.320 41.597 C 122.592 20.334,98.513 7.775,74.000 9.615 M47.750 34.568 C 41.126 36.206,39.071 44.368,42.185 56.667 C 44.624 66.298,49.737 76.275,55.058 81.789 L 56.543 83.328 55.141 84.801 C 43.550 96.981,46.458 114.564,61.103 120.842 C 62.474 121.429,62.115 121.175,60.083 120.118 C 55.055 117.503,51.541 114.012,49.729 109.831 C 46.242 101.784,48.821 91.067,55.903 84.174 C 56.857 83.246,56.854 83.188,55.818 82.321 C 48.168 75.915,40.043 55.209,41.018 44.605 C 41.990 34.043,50.710 31.052,57.567 38.929 C 63.096 45.281,67.586 58.116,68.319 69.667 C 68.421 71.278,68.457 71.480,68.476 70.559 C 68.532 67.830,67.720 62.425,66.572 57.880 C 62.598 42.152,55.023 32.769,47.750 34.568 M101.583 40.331 C 107.548 40.895,113.886 45.633,116.488 51.473 C 120.681 60.884,120.743 69.725,116.630 71.848 C 109.817 75.365,100.028 68.143,96.167 56.750 C 95.794 55.650,95.537 55.012,95.594 55.333 C 96.454 60.116,100.863 66.904,105.167 70.072 C 110.413 73.934,116.887 73.762,118.914 69.708 C 120.726 66.082,119.700 57.957,116.582 51.239 C 113.875 45.405,107.112 40.447,101.583 40.244 L 100.083 40.189 101.583 40.331 M98.833 40.612 C 97.455 41.206,96.865 41.896,95.290 44.750 C 91.081 52.376,88.442 62.963,88.424 72.292 C 88.420 74.515,88.379 76.333,88.333 76.332 C 88.287 76.331,87.763 76.182,87.167 76.000 C 86.571 75.818,85.971 75.674,85.833 75.679 C 85.551 75.690,88.119 76.500,88.436 76.500 C 88.594 76.500,88.619 75.856,88.547 73.708 C 88.222 64.010,91.455 51.385,96.350 43.240 C 97.223 41.788,98.049 41.060,99.333 40.611 C 99.746 40.467,99.933 40.352,99.750 40.355 C 99.567 40.358,99.154 40.474,98.833 40.612 M94.722 48.625 C 93.592 57.819,99.086 68.676,107.013 72.911 L 107.986 73.431 106.897 75.174 C 105.073 78.094,102.860 80.851,101.027 82.489 L 99.934 83.466 101.111 84.775 C 110.543 95.259,110.730 108.857,101.552 116.684 C 98.873 118.969,95.614 120.746,91.792 122.005 C 90.623 122.391,89.667 122.734,89.667 122.769 C 89.667 122.987,90.905 124.500,91.146 124.577 C 91.308 124.628,92.047 125.445,92.790 126.391 C 93.532 127.338,95.784 129.831,97.794 131.931 C 99.803 134.032,101.692 136.031,101.991 136.375 C 102.678 137.165,102.590 137.174,105.119 136.073 C 116.987 130.912,127.512 121.887,134.460 110.917 C 135.719 108.928,137.540 105.651,137.440 105.552 C 137.407 105.518,136.881 106.398,136.273 107.507 C 129.237 120.345,116.294 131.818,103.483 136.575 L 102.716 136.860 101.735 135.805 C 101.196 135.225,99.700 133.662,98.411 132.333 C 95.452 129.283,94.278 127.997,93.068 126.480 C 92.538 125.817,91.588 124.756,90.956 124.122 C 90.324 123.489,89.844 122.933,89.890 122.887 C 89.936 122.841,90.861 122.507,91.945 122.145 C 109.652 116.226,114.051 98.185,101.111 84.551 L 100.131 83.518 101.619 82.102 C 103.909 79.922,108.398 73.842,108.087 73.340 C 108.035 73.255,107.385 72.863,106.642 72.468 C 100.535 69.220,94.726 59.480,94.854 52.702 L 94.876 51.583 95.007 52.589 C 95.079 53.143,95.220 53.855,95.319 54.173 L 95.499 54.750 95.411 54.167 C 95.114 52.182,94.971 50.067,95.054 48.875 C 95.170 47.224,94.917 47.034,94.722 48.625 M139.412 49.958 C 139.475 50.119,139.793 50.946,140.120 51.796 C 140.447 52.646,140.746 53.310,140.785 53.271 C 140.873 53.183,139.508 49.667,139.386 49.667 C 139.338 49.667,139.349 49.798,139.412 49.958 M15.776 55.277 C 14.228 60.068,12.633 68.371,12.879 70.364 C 12.941 70.870,12.949 70.859,12.973 70.228 C 13.106 66.796,14.479 59.935,15.985 55.173 C 16.259 54.305,16.456 53.567,16.422 53.533 C 16.388 53.499,16.097 54.283,15.776 55.277 M140.914 53.792 C 141.141 54.362,142.834 60.355,142.846 60.633 C 142.854 60.789,142.895 60.831,142.938 60.726 C 143.084 60.369,141.141 53.500,140.894 53.500 C 140.841 53.500,140.850 53.631,140.914 53.792 M143.014 61.107 C 143.006 61.212,143.117 61.861,143.259 62.550 C 143.401 63.239,143.701 64.990,143.925 66.443 C 144.208 68.282,144.305 68.690,144.242 67.787 C 144.110 65.892,143.077 60.271,143.014 61.107 M144.383 70.000 C 144.383 70.504,144.415 70.710,144.453 70.458 C 144.491 70.206,144.491 69.794,144.453 69.542 C 144.415 69.290,144.383 69.496,144.383 70.000 M12.729 72.917 C 12.729 73.925,12.757 74.316,12.790 73.786 C 12.823 73.255,12.823 72.430,12.789 71.952 C 12.756 71.474,12.729 71.908,12.729 72.917 M144.573 75.500 C 144.573 77.929,144.596 78.923,144.625 77.708 C 144.653 76.494,144.653 74.506,144.625 73.292 C 144.596 72.077,144.573 73.071,144.573 75.500 M68.558 73.167 C 68.558 73.946,68.587 74.265,68.622 73.875 C 68.657 73.485,68.657 72.848,68.622 72.458 C 68.587 72.069,68.558 72.387,68.558 73.167 M68.363 75.480 L 68.333 76.377 68.875 76.269 C 69.948 76.055,72.411 75.360,72.143 75.347 C 71.993 75.339,71.148 75.521,70.266 75.750 C 69.384 75.979,68.630 76.167,68.590 76.167 C 68.551 76.167,68.490 75.810,68.456 75.375 L 68.393 74.583 68.363 75.480 M74.955 74.858 C 74.243 74.940,73.381 75.079,73.039 75.167 L 72.417 75.328 73.134 75.244 C 77.303 74.756,81.134 74.823,84.087 75.433 C 84.787 75.578,85.393 75.663,85.434 75.622 C 85.543 75.512,82.982 75.032,81.250 74.838 C 79.492 74.640,76.784 74.649,74.955 74.858 M12.730 78.167 C 12.730 79.221,12.757 79.652,12.790 79.125 C 12.823 78.598,12.823 77.735,12.790 77.208 C 12.757 76.681,12.730 77.112,12.730 78.167 M12.852 80.715 C 12.810 82.148,13.548 87.321,14.082 89.333 C 14.364 90.397,14.307 89.955,13.746 86.750 C 13.521 85.467,13.232 83.442,13.104 82.250 C 12.975 81.058,12.862 80.368,12.852 80.715 M144.360 80.776 C 144.316 81.907,143.836 85.423,143.398 87.814 C 143.174 89.041,143.020 90.076,143.058 90.114 C 143.308 90.363,144.585 81.700,144.455 80.639 C 144.392 80.129,144.384 80.140,144.360 80.776 M14.507 91.179 C 14.435 93.762,19.158 104.980,22.732 110.717 C 29.729 121.948,42.433 132.613,53.696 136.712 C 53.897 136.785,54.347 136.428,55.291 135.449 C 56.014 134.698,57.774 132.868,59.202 131.383 C 62.635 127.812,66.647 122.913,66.367 122.633 C 66.204 122.470,63.119 121.492,63.035 121.576 C 63.002 121.609,63.725 121.883,64.643 122.183 L 66.311 122.730 65.992 123.177 C 64.743 124.932,61.160 129.092,58.608 131.750 C 56.936 133.492,55.238 135.279,54.833 135.722 C 53.927 136.716,53.973 136.721,50.784 135.237 C 33.413 127.152,20.712 112.207,15.242 93.417 C 14.842 92.042,14.511 91.035,14.507 91.179 M142.516 91.858 C 141.694 95.148,139.627 100.920,138.386 103.391 C 137.673 104.810,137.407 105.488,137.661 105.237 C 138.567 104.341,143.074 91.973,142.797 91.142 C 142.765 91.045,142.638 91.367,142.516 91.858 " stroke="none" fill="#fba8a7" fill-rule="evenodd"></path></g></svg>